<svg width="40" height="40" viewBox="0 0 40 40" fill="none" xmlns="http://www.w3.org/2000/svg">
<path fill-rule="evenodd" clip-rule="evenodd" d="M20 40C31.0457 40 40 31.0457 40 20C40 8.9543 31.0457 0 20 0C8.9543 0 0 8.9543 0 20C0 31.0457 8.9543 40 20 40ZM33.394 21.0607L23.8481 30.6066C23.2623 31.1924 22.3125 31.1924 21.7267 30.6066C21.1409 30.0208 21.1409 29.0711 21.7267 28.4853L28.712 21.5H7.5C6.67157 21.5 6 20.8284 6 20C6 19.1716 6.67157 18.5 7.5 18.5H28.712L21.7267 11.5147C21.1409 10.9289 21.1409 9.97919 21.7267 9.3934C22.3125 8.80761 23.2623 8.80761 23.8481 9.3934L33.394 18.9393C33.9798 19.5251 33.9798 20.4749 33.394 21.0607Z" fill="#231F20"/>
</svg>
